<?xml version="1.0" encoding="UTF-8" standalone="no"?>
<!-- Created with Inkscape (http://www.inkscape.org/) -->

<svg
   width="210mm"
   height="297mm"
   viewBox="0 0 210 297"
   version="1.1"
   id="svg1"
   xml:space="preserve"
   inkscape:version="1.3.2 (091e20e, 2023-11-25, custom)"
   sodipodi:docname="LogoWeb.svg"
   xmlns:inkscape="http://www.inkscape.org/namespaces/inkscape"
   xmlns:sodipodi="http://sodipodi.sourceforge.net/DTD/sodipodi-0.dtd"
   xmlns="http://www.w3.org/2000/svg"
   xmlns:svg="http://www.w3.org/2000/svg"><sodipodi:namedview
     id="namedview1"
     pagecolor="#ffffff"
     bordercolor="#000000"
     borderopacity="0.25"
     inkscape:showpageshadow="2"
     inkscape:pageopacity="0.0"
     inkscape:pagecheckerboard="0"
     inkscape:deskcolor="#d1d1d1"
     inkscape:document-units="mm"
     showguides="true"
     inkscape:zoom="1"
     inkscape:cx="205.5"
     inkscape:cy="446.5"
     inkscape:window-width="2560"
     inkscape:window-height="1334"
     inkscape:window-x="-11"
     inkscape:window-y="-11"
     inkscape:window-maximized="1"
     inkscape:current-layer="layer6"><sodipodi:guide
       position="-60.854167,273.45208"
       orientation="1,0"
       id="guide5"
       inkscape:locked="false" /></sodipodi:namedview><defs
     id="defs1"><rect
       x="276"
       y="271"
       width="143"
       height="52"
       id="rect8" /><rect
       x="258"
       y="257"
       width="124"
       height="63"
       id="rect7" /></defs><g
     inkscape:groupmode="layer"
     id="layer4"
     inkscape:label="Fondo"><ellipse
       style="fill:#000000;stroke-width:0.0455584"
       id="path1"
       cy="122.02274"
       cx="103.63473"
       rx="75"
       ry="51.452084" /></g><g
     inkscape:groupmode="layer"
     id="layer5"
     inkscape:label="Barra"><path
       style="fill:#808080;stroke-width:0.0303601"
       d="m 51.092176,143.22656 c -0.333604,3.06986 3.599454,3.77548 4.779874,1.91407 l 15.891004,-40.68506 c 0.279371,-2.73513 -2.879387,-4.08888 -4.561634,-1.71768 z"
       id="path3"
       sodipodi:nodetypes="ccccc" /></g><g
     inkscape:groupmode="layer"
     id="layer3"
     inkscape:label="Símbolos"
     transform="translate(17.971338,-4.999545)"><path
       style="fill:#808080;stroke-width:0.0295304"
       d="m 28.906178,109.94681 c 3.011758,-1.45377 5.336351,0.47026 4.092709,3.61439 l -13.435177,13.49885 13.608081,13.70102 c 1.171867,3.40721 -2.537222,4.56806 -4.290479,3.36356 L 15.615931,130.94415 c -0.882394,-1.13266 -1.754671,-2.27245 -1.655519,-4.09635 0.108551,-1.38187 0.586873,-2.62881 1.740418,-3.62941 z"
       id="path2"
       sodipodi:nodetypes="ccccccccc" /><path
       style="fill:#808080;stroke-width:0.0303691"
       d="m 141.36909,110.1408 c -3.22132,-1.43749 -5.70765,0.46501 -4.37747,3.57394 l 14.37,13.34772 -14.55494,13.54763 c -1.25341,3.36908 2.71376,4.51693 4.58901,3.32591 l 14.18839,-13.03292 c 0.94377,-1.11999 1.87675,-2.24701 1.77072,-4.0505 -0.11612,-1.36639 -0.62773,-2.59937 -1.86154,-3.58876 z"
       id="path2-2"
       sodipodi:nodetypes="ccccccccc" /></g><g
     inkscape:groupmode="layer"
     id="layer6"
     inkscape:label="Texto"
     transform="translate(1.8520833,-0.26458333)"><path
       d="m 71.803963,106.00849 h 14.952634 q 4.421357,0 7.131952,1.19976 2.732795,1.19977 4.510219,3.44376 1.777452,2.24401 2.577282,5.22121 0.79985,2.9772 0.79985,6.30988 0,5.22121 -1.19976,8.10953 -1.17756,2.86611 -3.288267,4.82128 -2.110688,1.93296 -4.532439,2.57727 -3.310463,0.88871 -5.998837,0.88871 H 71.803963 Z m 10.06471,7.37634 v 17.79651 h 2.466173 q 3.15494,0 4.488017,-0.68875 1.333078,-0.71097 2.088487,-2.44397 0.75541,-1.75521 0.75541,-5.66556 0,-5.17676 -1.688562,-7.08751 -1.688562,-1.91072 -5.598912,-1.91072 z m 22.617797,-7.37634 h 9.55371 l 3.44376,18.19644 5.02125,-18.19644 h 9.53146 l 5.04346,18.19644 3.44379,-18.19644 h 9.50924 l -7.17637,32.5714 h -9.86475 l -5.70999,-20.5071 -5.68778,20.5071 h -9.86474 z"
       id="text7"
       style="-inkscape-font-specification:'Arial, Heavy';fill:#ffffff;stroke-width:0.336787"
       aria-label="DW" /></g></svg>
